<?xml version="1.0" encoding="UTF-8"?>
<svg width="36px" height="36px" viewBox="0 0 36 36" version="1.1" xmlns="http://www.w3.org/2000/svg" xmlns:xlink="http://www.w3.org/1999/xlink">
    <!-- Generator: sketchtool 59 (101010) - https://sketch.com -->
    <title>4690BD65-531E-4253-8251-9F39BCE6B854</title>
    <desc>Created with sketchtool.</desc>
    <defs>
        <linearGradient x1="50%" y1="28.9509562%" x2="50%" y2="88.8189853%" id="linearGradient-1">
            <stop stop-color="#57CBDC" offset="0%"></stop>
            <stop stop-color="#3BA1B5" offset="100%"></stop>
        </linearGradient>
    </defs>
    <g id="Page-1" stroke="none" stroke-width="1" fill="none" fill-rule="evenodd">
        <g id="Desktop-Sunny-example" transform="translate(-440.000000, -486.000000)">
            <rect fill="#0F0F0F" x="0" y="0" width="1024" height="768"></rect>
            <rect id="Rectangle" stroke="#979797" fill="url(#linearGradient-1)" x="0" y="0" width="1024" height="768"></rect>
            <g id="sun" transform="translate(441.000000, 487.000000)" fill-rule="nonzero" stroke="#FFFFFF">
                <path d="M25.8772949,17.1 C25.8772949,12.2813152 21.9709796,8.375 17.1522949,8.375 C12.3336102,8.375 8.42729486,12.2813153 8.42729486,17.1 C8.42729486,21.9186847 12.3336102,25.825 17.1522949,25.825 C21.9709796,25.825 25.8772949,21.9186848 25.8772949,17.1 Z" id="sun-path" stroke-width="2.35"></path>
                <path d="M17.1522949,0 C16.6552387,0 16.2522949,0.38835468 16.2522949,0.891700164 L16.2522949,4.50829984 C16.2522949,5.00077224 16.6697753,5.4 17.1522949,5.4 C17.6493512,5.4 18.0522949,5.01164532 18.0522949,4.50829984 L18.0522949,0.891700164 C18.0522949,0.39922776 17.6348144,0 17.1522949,0 L17.1522949,0 Z" id="sun-path" stroke-width="0.5" fill="#FFFFFF"></path>
                <path d="M29.2807989,5.02379087 C28.9293271,4.672319 28.3697946,4.66200299 28.0138756,5.01792201 L25.4565535,7.5752442 C25.1083229,7.92347472 25.1212295,8.50097466 25.4624224,8.84216754 C25.8138941,9.19363932 26.3734267,9.2039553 26.7293457,8.84803644 L29.2866678,6.29071416 C29.6348985,5.94248364 29.6219918,5.3649837 29.2807989,5.02379087 L29.2807989,5.02379087 Z" id="sun-path" stroke-width="0.5" fill="#FFFFFF"></path>
                <path d="M34.3045899,17.1522949 C34.3045899,16.6552387 33.9162352,16.2522949 33.4128897,16.2522949 L29.7962901,16.2522949 C29.3038177,16.2522949 28.9045899,16.6697753 28.9045899,17.1522949 C28.9045899,17.6493512 29.2929446,18.0522949 29.7962901,18.0522949 L33.4128897,18.0522949 C33.9053621,18.0522949 34.3045899,17.6348144 34.3045899,17.1522949 L34.3045899,17.1522949 Z" id="sun-path" stroke-width="0.5" fill="#FFFFFF"></path>
                <path d="M29.2807989,29.2807989 C29.6322709,28.9293271 29.6425868,28.3697946 29.2866678,28.0138756 L26.7293457,25.4565535 C26.3811152,25.1083229 25.8036152,25.1212295 25.4624224,25.4624224 C25.1109506,25.8138941 25.1006344,26.3734267 25.4565535,26.7293457 L28.0138756,29.2866678 C28.3621063,29.6348985 28.9396062,29.6219918 29.2807989,29.2807989 L29.2807989,29.2807989 Z" id="sun-path" stroke-width="0.5" fill="#FFFFFF"></path>
                <path d="M17.1522949,34.3045899 C17.6493512,34.3045899 18.0522949,33.9162352 18.0522949,33.4128897 L18.0522949,29.7962901 C18.0522949,29.3038177 17.6348144,28.9045899 17.1522949,28.9045899 C16.6552387,28.9045899 16.2522949,29.2929446 16.2522949,29.7962901 L16.2522949,33.4128897 C16.2522949,33.9053621 16.6697753,34.3045899 17.1522949,34.3045899 L17.1522949,34.3045899 Z" id="sun-path" stroke-width="0.5" fill="#FFFFFF"></path>
                <path d="M5.02379087,29.2807989 C5.37526273,29.6322709 5.93479512,29.6425868 6.29071416,29.2866678 L8.84803644,26.7293457 C9.19626696,26.3811152 9.18336024,25.8036152 8.84216754,25.4624224 C8.49069558,25.1109506 7.93116324,25.1006344 7.5752442,25.4565535 L5.01792201,28.0138756 C4.66969144,28.3621063 4.68259803,28.9396062 5.02379087,29.2807989 L5.02379087,29.2807989 Z" id="sun-path" stroke-width="0.5" fill="#FFFFFF"></path>
                <path d="M0,17.1522949 C0,17.6493512 0.38835468,18.0522949 0.891700164,18.0522949 L4.50829984,18.0522949 C5.00077224,18.0522949 5.4,17.6348144 5.4,17.1522949 C5.4,16.6552387 5.01164532,16.2522949 4.50829984,16.2522949 L0.891700164,16.2522949 C0.39922776,16.2522949 0,16.6697753 0,17.1522949 L0,17.1522949 Z" id="sun-path" stroke-width="0.5" fill="#FFFFFF"></path>
                <path d="M5.02379087,5.02379087 C4.672319,5.37526273 4.66200299,5.93479512 5.01792201,6.29071416 L7.5752442,8.84803644 C7.92347472,9.19626696 8.50097466,9.18336024 8.84216754,8.84216754 C9.19363932,8.49069558 9.2039553,7.93116324 8.84803644,7.5752442 L6.29071416,5.01792201 C5.94248364,4.66969144 5.3649837,4.68259803 5.02379087,5.02379087 L5.02379087,5.02379087 Z" id="sun-path" stroke-width="0.5" fill="#FFFFFF"></path>
            </g>
        </g>
    </g>
</svg>