<?xml version="1.0" encoding="UTF-8"?>
<svg width="46px" height="45px" viewBox="0 0 46 45" version="1.1" xmlns="http://www.w3.org/2000/svg" xmlns:xlink="http://www.w3.org/1999/xlink">
    <!-- Generator: sketchtool 59 (101010) - https://sketch.com -->
    <title>047B9E49-9C3D-4A1A-9F0B-36BC6E19077C</title>
    <desc>Created with sketchtool.</desc>
    <defs>
        <linearGradient x1="50%" y1="25.6472649%" x2="50%" y2="88.8189853%" id="linearGradient-1">
            <stop stop-color="#616978" offset="0%"></stop>
            <stop stop-color="#3C4353" offset="100%"></stop>
        </linearGradient>
    </defs>
    <g id="Page-1" stroke="none" stroke-width="1" fill="none" fill-rule="evenodd">
        <g id="Desktop-Rainy-example" transform="translate(-434.000000, -484.000000)">
            <rect fill="#0F0F0F" x="0" y="0" width="1024" height="768"></rect>
            <rect id="Rectangle" fill="url(#linearGradient-1)" x="0" y="0" width="1024" height="768"></rect>
            <g id="rain-sun" transform="translate(435.000000, 484.000000)">
                <g id="18080674761548329943-copy" transform="translate(0.000000, 11.000000)" fill="#FFFFFF" fill-rule="nonzero" stroke="#FFFFFF" stroke-width="0.7">
                    <path d="M5.74141287,11.3430162 C3.25445387,11.9164303 1.4,14.1464536 1.4,16.8 C1.4,19.8927946 3.91711369,22.4 7.00394306,22.4 L30.7960569,22.4 C33.8910292,22.4 36.4,19.8865013 36.4,16.8 C36.4,14.1715804 34.582016,11.9661023 32.1413716,11.3630644 L32.1413716,11.3630644 C32.1800279,11.0808998 32.2,10.7927823 32.2,10.5 C32.2,7.0206059 29.3793941,4.2 25.9,4.2 C24.1842425,4.2 22.6286805,4.8858782 21.4925385,5.99841018 C20.1052167,3.26956829 17.270939,1.4 14,1.4 C9.36080788,1.4 5.6,5.16080782 5.6,9.8 C5.6,10.3270866 5.64854676,10.8428344 5.74141287,11.3430162 L5.74141287,11.3430162 L5.74141287,11.3430162 Z M33.5990892,10.3803413 C36.074704,11.4594103 37.8,13.927674 37.8,16.8 C37.8,20.6581267 34.6663443,23.8 30.8007841,23.8 L6.99921589,23.8 C3.12549185,23.8 0,20.6659932 0,16.8 C0,13.9287835 1.73552226,11.4542519 4.21665525,10.3761543 L4.21665525,10.3761543 C4.2056029,10.1855138 4.2,9.99341126 4.2,9.8 C4.2,4.38760924 8.58760918,0 14,0 C17.2171257,0 20.0721843,1.55019277 21.8589538,3.94435629 C23.0336007,3.21873581 24.4178998,2.8 25.9,2.8 C30.1126347,2.8 33.5351442,6.18292682 33.5990892,10.3803413 L33.5990892,10.3803413 L33.5990892,10.3803413 Z M9.8,26.6 C9.02680135,26.6 8.4,27.2214107 8.4,28 C8.4,28.7731986 9.02141075,29.4 9.8,29.4 C10.5731986,29.4 11.2,28.7785893 11.2,28 C11.2,27.2268014 10.5785893,26.6 9.8,26.6 L9.8,26.6 Z M14,30.8 C13.2268014,30.8 12.6,31.4214107 12.6,32.2 C12.6,32.9731986 13.2214107,33.6 14,33.6 C14.7731986,33.6 15.4,32.9785893 15.4,32.2 C15.4,31.4268014 14.7785893,30.8 14,30.8 L14,30.8 Z M19.6,26.6 C18.8268014,26.6 18.2,27.2214107 18.2,28 C18.2,28.7731986 18.8214107,29.4 19.6,29.4 C20.3731986,29.4 21,28.7785893 21,28 C21,27.2268014 20.3785893,26.6 19.6,26.6 L19.6,26.6 Z M23.8,30.8 C23.0268014,30.8 22.4,31.4214107 22.4,32.2 C22.4,32.9731986 23.0214107,33.6 23.8,33.6 C24.5731986,33.6 25.2,32.9785893 25.2,32.2 C25.2,31.4268014 24.5785893,30.8 23.8,30.8 L23.8,30.8 Z M28,26.6 C27.2268014,26.6 26.6,27.2214107 26.6,28 C26.6,28.7731986 27.2214107,29.4 28,29.4 C28.7731986,29.4 29.4,28.7785893 29.4,28 C29.4,27.2268014 28.7785893,26.6 28,26.6 L28,26.6 Z" id="cloud-snow"></path>
                </g>
                <path d="M33.2549275,21.3003425 C34.9308471,19.9248665 36,17.8372903 36,15.5 C36,11.3578644 32.6421356,8 28.5,8 C24.3578644,8 21,11.3578644 21,15.5" id="Oval" stroke="#FFFFFF" stroke-width="2"></path>
                <g id="Group" transform="translate(18.000000, 0.000000)" fill="#FFFFFF" fill-rule="nonzero">
                    <path d="M11.0113185,0 C10.5694907,0 10.2113185,0.345204163 10.2113185,0.792622376 L10.2113185,4.00737763 C10.2113185,4.44513088 10.5824123,4.8 11.0113185,4.8 C11.4531463,4.8 11.8113185,4.45479584 11.8113185,4.00737763 L11.8113185,0.792622376 C11.8113185,0.354869125 11.4402247,0 11.0113185,0 L11.0113185,0 Z" id="cloud-sun-snow-path"></path>
                    <path d="M21.7842007,4.46227395 C21.4717814,4.14985451 20.9744191,4.14068474 20.6580467,4.45705718 L18.3848715,6.73023242 C18.0753332,7.03977072 18.0868057,7.55310398 18.3900883,7.8563865 C18.7025076,8.16880594 19.1998699,8.17797573 19.5162423,7.86160326 L21.7894175,5.58842803 C22.0989558,5.27888974 22.0874833,4.76555646 21.7842007,4.46227395 L21.7842007,4.46227395 Z" id="cloud-sun-snow-path"></path>
                    <path d="M26.2464748,15.2351563 C26.2464748,14.7933284 25.9012707,14.4351563 25.4538524,14.4351563 L22.2390971,14.4351563 C21.8013439,14.4351563 21.4464748,14.80625 21.4464748,15.2351563 C21.4464748,15.676984 21.791679,16.0351563 22.2390971,16.0351563 L25.4538524,16.0351563 C25.8916057,16.0351563 26.2464748,15.6640625 26.2464748,15.2351563 L26.2464748,15.2351563 Z" id="cloud-sun-snow-path"></path>
                    <path d="M0.238436255,4.46227395 C-0.0739832654,4.77469339 -0.0831530254,5.27205558 0.233219455,5.58842803 L2.50639465,7.86160326 C2.81593289,8.17114157 3.32926617,8.15966902 3.63254873,7.8563865 C3.94496825,7.54396707 3.95413801,7.04660488 3.63776553,6.73023242 L1.36459033,4.45705718 C1.05505193,4.1475189 0.541718655,4.15899144 0.238436255,4.46227395 L0.238436255,4.46227395 Z" id="cloud-sun-snow-path"></path>
                </g>
            </g>
        </g>
    </g>
</svg>