<?xml version="1.0" encoding="UTF-8"?>
<svg width="40px" height="35px" viewBox="0 0 40 35" version="1.1" xmlns="http://www.w3.org/2000/svg" xmlns:xlink="http://www.w3.org/1999/xlink">
    <!-- Generator: sketchtool 59 (101010) - https://sketch.com -->
    <title>B897DD76-5F14-40DD-BFE0-65C7A29B8DFB</title>
    <desc>Created with sketchtool.</desc>
    <defs>
        <linearGradient x1="50%" y1="25.6472649%" x2="50%" y2="88.8189853%" id="linearGradient-1">
            <stop stop-color="#616978" offset="0%"></stop>
            <stop stop-color="#3C4353" offset="100%"></stop>
        </linearGradient>
    </defs>
    <g id="Page-1" stroke="none" stroke-width="1" fill="none" fill-rule="evenodd">
        <g id="Desktop-Rainy-example" transform="translate(-348.000000, -494.000000)">
            <rect fill="#0F0F0F" x="0" y="0" width="1024" height="768"></rect>
            <rect id="Rectangle" fill="url(#linearGradient-1)" x="0" y="0" width="1024" height="768"></rect>
            <g id="rain" transform="translate(349.000000, 495.000000)" fill="#FFFFFF" fill-rule="nonzero" stroke="#FFFFFF" stroke-width="0.7">
                <path d="M5.74141287,11.3430162 C3.25445387,11.9164303 1.4,14.1464536 1.4,16.8 C1.4,19.8927946 3.91711369,22.4 7.00394306,22.4 L30.7960569,22.4 C33.8910292,22.4 36.4,19.8865013 36.4,16.8 C36.4,14.1715804 34.582016,11.9661023 32.1413716,11.3630644 L32.1413716,11.3630644 C32.1800279,11.0808998 32.2,10.7927823 32.2,10.5 C32.2,7.0206059 29.3793941,4.2 25.9,4.2 C24.1842425,4.2 22.6286805,4.8858782 21.4925385,5.99841018 C20.1052167,3.26956829 17.270939,1.4 14,1.4 C9.36080788,1.4 5.6,5.16080782 5.6,9.8 C5.6,10.3270866 5.64854676,10.8428344 5.74141287,11.3430162 L5.74141287,11.3430162 L5.74141287,11.3430162 Z M33.5990892,10.3803413 C36.074704,11.4594103 37.8,13.927674 37.8,16.8 C37.8,20.6581267 34.6663443,23.8 30.8007841,23.8 L6.99921589,23.8 C3.12549185,23.8 0,20.6659932 0,16.8 C0,13.9287835 1.73552226,11.4542519 4.21665525,10.3761543 L4.21665525,10.3761543 C4.2056029,10.1855138 4.2,9.99341126 4.2,9.8 C4.2,4.38760924 8.58760918,0 14,0 C17.2171257,0 20.0721843,1.55019277 21.8589538,3.94435629 C23.0336007,3.21873581 24.4178998,2.8 25.9,2.8 C30.1126347,2.8 33.5351442,6.18292682 33.5990892,10.3803413 L33.5990892,10.3803413 L33.5990892,10.3803413 Z M9.8,26.6 C9.02680135,26.6 8.4,27.2214107 8.4,28 C8.4,28.7731986 9.02141075,29.4 9.8,29.4 C10.5731986,29.4 11.2,28.7785893 11.2,28 C11.2,27.2268014 10.5785893,26.6 9.8,26.6 L9.8,26.6 Z M14,30.8 C13.2268014,30.8 12.6,31.4214107 12.6,32.2 C12.6,32.9731986 13.2214107,33.6 14,33.6 C14.7731986,33.6 15.4,32.9785893 15.4,32.2 C15.4,31.4268014 14.7785893,30.8 14,30.8 L14,30.8 Z M19.6,26.6 C18.8268014,26.6 18.2,27.2214107 18.2,28 C18.2,28.7731986 18.8214107,29.4 19.6,29.4 C20.3731986,29.4 21,28.7785893 21,28 C21,27.2268014 20.3785893,26.6 19.6,26.6 L19.6,26.6 Z M23.8,30.8 C23.0268014,30.8 22.4,31.4214107 22.4,32.2 C22.4,32.9731986 23.0214107,33.6 23.8,33.6 C24.5731986,33.6 25.2,32.9785893 25.2,32.2 C25.2,31.4268014 24.5785893,30.8 23.8,30.8 L23.8,30.8 Z M28,26.6 C27.2268014,26.6 26.6,27.2214107 26.6,28 C26.6,28.7731986 27.2214107,29.4 28,29.4 C28.7731986,29.4 29.4,28.7785893 29.4,28 C29.4,27.2268014 28.7785893,26.6 28,26.6 L28,26.6 Z" id="cloud-snow"></path>
            </g>
        </g>
    </g>
</svg>