<?xml version="1.0" encoding="UTF-8"?>
<svg width="110px" height="98px" viewBox="0 0 110 98" version="1.1" xmlns="http://www.w3.org/2000/svg" xmlns:xlink="http://www.w3.org/1999/xlink">
    <!-- Generator: sketchtool 59 (101010) - https://sketch.com -->
    <title>AA30F027-FD29-4B15-9D5A-E122B8A69D71</title>
    <desc>Created with sketchtool.</desc>
    <defs>
        <linearGradient x1="50%" y1="25.6472649%" x2="50%" y2="88.8189853%" id="linearGradient-1">
            <stop stop-color="#616978" offset="0%"></stop>
            <stop stop-color="#3C4353" offset="100%"></stop>
        </linearGradient>
    </defs>
    <g id="Page-1" stroke="none" stroke-width="1" fill="none" fill-rule="evenodd">
        <g id="Desktop-Rainy-example" transform="translate(-452.000000, -313.000000)">
            <rect fill="#0F0F0F" x="0" y="0" width="1024" height="768"></rect>
            <rect id="Rectangle" fill="url(#linearGradient-1)" x="0" y="0" width="1024" height="768"></rect>
            <g id="rain" transform="translate(453.000000, 314.000000)" fill="#FFFFFF" fill-rule="nonzero" stroke="#FFFFFF" stroke-width="2">
                <path d="M16.4040368,32.4086176 C9.29843964,34.0469436 4,40.4184388 4,48 C4,56.836556 11.1917534,64 20.0112659,64 L87.988734,64 C96.831512,64 104,56.8185752 104,48 C104,40.4902296 98.80576,34.1888636 91.8324904,32.4658984 L91.8324904,32.4658984 C91.9429368,31.6597136 92,30.8365208 92,30 C92,20.058874 83.941126,12 74,12 C69.0978356,12 64.6533728,13.959652 61.4072528,17.1383148 C57.4434764,9.34162368 49.34554,4 40,4 C26.7451654,4 16,14.7451652 16,28 C16,29.5059616 16.138705,30.9795268 16.4040368,32.4086176 L16.4040368,32.4086176 L16.4040368,32.4086176 Z M95.9973976,29.658118 C103.070583,32.7411724 108,39.7933544 108,48 C108,59.0232192 99.046698,68 88.0022404,68 L19.9977597,68 C8.92997672,68 0,59.0456948 0,48 C0,39.7965244 4.95863504,32.726434 12.0475864,29.6461552 L12.0475864,29.6461552 C12.0160083,29.101468 12,28.5526036 12,28 C12,12.5360264 24.5360262,0 40,0 C49.1917876,0 57.349098,4.4291222 62.4541536,11.2695894 C65.8102876,9.19638804 69.765428,8 74,8 C86.0360992,8 95.8146976,17.6655052 95.9973976,29.658118 L95.9973976,29.658118 L95.9973976,29.658118 Z M28,76 C25.790861,76 24,77.7754592 24,80 C24,82.2091388 25.7754593,84 28,84 C30.2091388,84 32,82.2245408 32,80 C32,77.7908612 30.2245408,76 28,76 L28,76 Z M40,88 C37.7908612,88 36,89.7754592 36,92 C36,94.2091388 37.7754592,96 40,96 C42.2091388,96 44,94.2245408 44,92 C44,89.7908612 42.2245408,88 40,88 L40,88 Z M56,76 C53.7908612,76 52,77.7754592 52,80 C52,82.2091388 53.7754592,84 56,84 C58.2091388,84 60,82.2245408 60,80 C60,77.7908612 58.2245408,76 56,76 L56,76 Z M68,88 C65.7908612,88 64,89.7754592 64,92 C64,94.2091388 65.7754592,96 68,96 C70.2091388,96 72,94.2245408 72,92 C72,89.7908612 70.2245408,88 68,88 L68,88 Z M80,76 C77.7908612,76 76,77.7754592 76,80 C76,82.2091388 77.7754592,84 80,84 C82.2091388,84 84,82.2245408 84,80 C84,77.7908612 82.2245408,76 80,76 L80,76 Z" id="cloud-snow"></path>
            </g>
        </g>
    </g>
</svg>