<?xml version="1.0" encoding="UTF-8"?>
<svg width="110px" height="98px" viewBox="0 0 110 98" version="1.1" xmlns="http://www.w3.org/2000/svg" xmlns:xlink="http://www.w3.org/1999/xlink">
    <!-- Generator: sketchtool 59 (101010) - https://sketch.com -->
    <title>4E8B04D3-98EE-42A6-9EA3-DF6A421BA378</title>
    <desc>Created with sketchtool.</desc>
    <defs>
        <linearGradient x1="50%" y1="25.6472649%" x2="50%" y2="88.8189853%" id="linearGradient-1">
            <stop stop-color="#E0E0E0" offset="0%"></stop>
            <stop stop-color="#A6A6A6" offset="100%"></stop>
        </linearGradient>
    </defs>
    <g id="Page-1" stroke="none" stroke-width="1" fill="none" fill-rule="evenodd">
        <g id="Desktop-Snowy-example" transform="translate(-452.000000, -313.000000)">
            <rect fill="#0F0F0F" x="0" y="0" width="1024" height="768"></rect>
            <rect id="Rectangle" fill="url(#linearGradient-1)" x="0" y="0" width="1024" height="768"></rect>
            <g id="snow" transform="translate(453.000000, 314.000000)" fill="#1F1F1F" fill-rule="nonzero" stroke="#1F1F1F" stroke-width="2">
                <path d="M32.459036,74.9078454 C32.459036,73.8541713 31.5717439,73 30.5462211,73 C29.4898025,73 28.6334062,73.8235679 28.6334062,74.9078454 L28.6334062,79.2635693 L24.8688192,77.0857073 C23.9581447,76.5588705 22.776251,76.9017495 22.2634896,77.7916667 C21.7352804,78.7083942 22.0188794,79.8633326 22.9560043,80.4054714 L26.7205913,82.5833333 L22.9560043,84.7611953 C22.0453298,85.2880321 21.7507282,86.4850828 22.2634896,87.375 C22.7916989,88.2917275 23.9316943,88.6230981 24.8688192,88.0809593 L28.6334062,85.9030974 L28.6334062,90.2588213 C28.6334062,91.3124954 29.5206983,92.1666667 30.5462211,92.1666667 C31.6026397,92.1666667 32.459036,91.3430988 32.459036,90.2588213 L32.459036,85.9030974 L36.2236229,88.0809593 C37.1342977,88.6077962 38.3161912,88.2649171 38.8289526,87.375 C39.3571619,86.4582725 39.073563,85.303334 38.1364379,84.7611953 L34.3718509,82.5833333 L38.1364379,80.4054714 C39.0471126,79.8786345 39.341714,78.6815838 38.8289526,77.7916667 C38.3007433,76.8749392 37.1607481,76.5435686 36.2236229,77.0857073 L32.459036,79.2635693 L32.459036,74.9078454 Z M78.3665938,79.2635693 L78.3665938,74.9078454 C78.3665938,73.8541713 77.4793017,73 76.4537788,73 C75.3973603,73 74.5409639,73.8235679 74.5409639,74.9078454 L74.5409639,79.2635693 L74.5409639,79.2635693 L70.776377,77.0857073 C69.8657023,76.5588705 68.6838088,76.9017495 68.1710474,77.7916667 C67.6428381,78.7083942 67.926437,79.8633326 68.8635621,80.4054714 L72.628149,82.5833333 L68.8635621,84.7611953 C67.9528874,85.2880321 67.658286,86.4850828 68.1710474,87.375 C68.6992567,88.2917275 69.8392519,88.6230981 70.776377,88.0809593 L74.5409639,85.9030974 L74.5409639,90.2588213 C74.5409639,91.3124954 75.428256,92.1666667 76.4537788,92.1666667 C77.5101974,92.1666667 78.3665938,91.3430988 78.3665938,90.2588213 L78.3665938,85.9030974 L82.1311807,88.0809593 C83.0418554,88.6077962 84.2237489,88.2649171 84.7365103,87.375 C85.2647196,86.4582725 84.9811207,85.303334 84.0439956,84.7611953 L80.2794087,82.5833333 L84.0439956,80.4054714 C84.9546703,79.8786345 85.2492717,78.6815838 84.7365103,77.7916667 C84.208301,76.8749392 83.0683058,76.5435686 82.1311807,77.0857073 L78.3665938,79.2635693 L78.3665938,79.2635693 L78.3665938,79.2635693 Z M55.4128149,83.0969026 L55.4128149,78.7411787 C55.4128149,77.6875046 54.5255228,76.8333333 53.5,76.8333333 C52.4435814,76.8333333 51.5871851,77.6569012 51.5871851,78.7411787 L51.5871851,83.0969026 L51.5871851,83.0969026 L47.8225982,80.9190407 C46.9119234,80.3922038 45.7300299,80.7350828 45.2172685,81.625 C44.6890592,82.5417275 44.9726581,83.696666 45.9097833,84.2388047 L49.6743702,86.4166667 L45.9097833,88.5945286 C44.9991085,89.1213655 44.7045071,90.3184162 45.2172685,91.2083333 C45.7454778,92.1250608 46.885473,92.4564314 47.8225982,91.9142926 L51.5871851,89.7364307 L51.5871851,94.0921546 C51.5871851,95.1458287 52.4744772,96 53.5,96 C54.5564186,96 55.4128149,95.1764321 55.4128149,94.0921546 L55.4128149,89.7364307 L59.1774018,91.9142926 C60.0880765,92.4411295 61.2699701,92.0982505 61.7827315,91.2083333 C62.3109408,90.2916058 62.0273418,89.1366674 61.0902167,88.5945286 L57.3256298,86.4166667 L61.0902167,84.2388047 C62.0008914,83.7119679 62.2954929,82.5149171 61.7827315,81.625 C61.2545222,80.7082725 60.1145269,80.3769019 59.1774018,80.9190407 L55.4128149,83.0969026 L55.4128149,83.0969026 L55.4128149,83.0969026 Z M16.4040368,32.4086176 C9.29843964,34.0469436 4,40.4184388 4,48 C4,56.836556 11.1917534,64 20.0112659,64 L87.988734,64 C96.831512,64 104,56.8185752 104,48 C104,40.4902296 98.80576,34.1888636 91.8324904,32.4658984 L91.8324904,32.4658984 C91.9429368,31.6597136 92,30.8365208 92,30 C92,20.058874 83.941126,12 74,12 C69.0978356,12 64.6533728,13.959652 61.4072528,17.1383148 C57.4434764,9.34162368 49.34554,4 40,4 C26.7451654,4 16,14.7451652 16,28 C16,29.5059616 16.138705,30.9795268 16.4040368,32.4086176 L16.4040368,32.4086176 L16.4040368,32.4086176 Z M95.9973976,29.658118 C103.070583,32.7411724 108,39.7933544 108,48 C108,59.0232192 99.046698,68 88.0022404,68 L19.9977597,68 C8.92997672,68 0,59.0456948 0,48 C0,39.7965244 4.95863504,32.726434 12.0475864,29.6461552 L12.0475864,29.6461552 C12.0160083,29.101468 12,28.5526036 12,28 C12,12.5360264 24.5360262,0 40,0 C49.1917876,0 57.349098,4.4291222 62.4541536,11.2695894 C65.8102876,9.19638804 69.765428,8 74,8 C86.0360992,8 95.8146976,17.6655052 95.9973976,29.658118 L95.9973976,29.658118 L95.9973976,29.658118 Z" id="cloud-snow"></path>
            </g>
        </g>
    </g>
</svg>