<?xml version="1.0" encoding="UTF-8"?>
<svg width="109px" height="109px" viewBox="0 0 109 109" version="1.1" xmlns="http://www.w3.org/2000/svg" xmlns:xlink="http://www.w3.org/1999/xlink">
    <!-- Generator: sketchtool 59 (101010) - https://sketch.com -->
    <title>B1F865F0-7569-4417-BF00-D1730822B46F</title>
    <desc>Created with sketchtool.</desc>
    <defs>
        <linearGradient x1="50%" y1="28.9509562%" x2="50%" y2="88.8189853%" id="linearGradient-1">
            <stop stop-color="#57CBDC" offset="0%"></stop>
            <stop stop-color="#3BA1B5" offset="100%"></stop>
        </linearGradient>
    </defs>
    <g id="Page-1" stroke="none" stroke-width="1" fill="none" fill-rule="evenodd">
        <g id="Desktop-Sunny-example" transform="translate(-458.000000, -308.000000)">
            <rect fill="#0F0F0F" x="0" y="0" width="1024" height="768"></rect>
            <rect id="Rectangle" stroke="#979797" fill="url(#linearGradient-1)" x="0" y="0" width="1024" height="768"></rect>
            <g id="sun" transform="translate(459.000000, 309.000000)" fill-rule="nonzero" stroke="#FFFFFF">
                <path d="M81,53 C81,37.536026 68.463974,25 53,25 C37.5360264,25 25,37.5360262 25,53 C25,68.4639738 37.5360264,81 53,81 C68.463974,81 81,68.463974 81,53 Z" id="sun-path" stroke-width="6"></path>
                <path d="M53,0 C51.3431462,0 50,1.22259807 50,2.80720422 L50,14.1927958 C50,15.7431719 51.3916016,17 53,17 C54.6568544,17 56,15.7774019 56,14.1927958 L56,2.80720422 C56,1.25682813 54.6083984,0 53,0 L53,0 Z" id="sun-path" stroke-width="1.4" fill="#FFFFFF"></path>
                <path d="M91.1566731,15.8623404 C90.0232611,14.7324285 88.2189032,14.6992645 87.0711499,15.8434732 L78.8244009,24.064754 C77.7014412,25.1842456 77.7430617,27.0407928 78.8433267,28.1376598 C79.9767387,29.2675715 81.7810966,29.3007353 82.9288499,28.1565272 L91.1755989,19.9352461 C92.2985591,18.8157544 92.2569381,16.9592073 91.1566731,15.8623404 L91.1566731,15.8623404 Z" id="sun-path" stroke-width="1.4" fill="#FFFFFF"></path>
                <path d="M107,53 C107,51.3431462 105.777402,50 104.192796,50 L92.8072043,50 C91.2568281,50 90,51.3916016 90,53 C90,54.6568544 91.2225981,56 92.8072043,56 L104.192796,56 C105.743172,56 107,54.6083984 107,53 L107,53 Z" id="sun-path" stroke-width="1.4" fill="#FFFFFF"></path>
                <path d="M91.1376594,91.1566731 C92.2675716,90.0232611 92.3007354,88.2189032 91.1565267,87.0711499 L82.9352462,78.8244009 C81.8157546,77.7014412 79.9592075,77.7430617 78.8623404,78.8433267 C77.7324287,79.9767387 77.6992643,81.7810966 78.8434731,82.9288499 L87.0647535,91.1755989 C88.1842458,92.2985591 90.0407929,92.2569381 91.1376594,91.1566731 L91.1376594,91.1566731 Z" id="sun-path" stroke-width="1.4" fill="#FFFFFF"></path>
                <path d="M53,107 C54.6568544,107 56,105.777402 56,104.192796 L56,92.8072043 C56,91.2568281 54.6083984,90 53,90 C51.3431462,90 50,91.2225981 50,92.8072043 L50,104.192796 C50,105.743172 51.3916016,107 53,107 L53,107 Z" id="sun-path" stroke-width="1.4" fill="#FFFFFF"></path>
                <path d="M15.8433267,91.1376594 C16.9767389,92.2675716 18.7810964,92.3007354 19.9288497,91.1565267 L28.1755993,82.9352462 C29.298559,81.8157546 29.2569379,79.9592075 28.1566735,78.8623404 C27.0232609,77.7324287 25.2189036,77.6992643 24.0711503,78.8434731 L15.824401,87.0647535 C14.7014411,88.1842458 14.7430618,90.0407929 15.8433267,91.1376594 L15.8433267,91.1376594 Z" id="sun-path" stroke-width="1.4" fill="#FFFFFF"></path>
                <path d="M0,53 C0,54.6568544 1.22259807,56 2.80720422,56 L14.1927958,56 C15.7431719,56 17,54.6083984 17,53 C17,51.3431462 15.7774019,50 14.1927958,50 L2.80720422,50 C1.25682813,50 0,51.3916016 0,53 L0,53 Z" id="sun-path" stroke-width="1.4" fill="#FFFFFF"></path>
                <path d="M15.8623404,15.8433267 C14.7324285,16.9767389 14.6992645,18.7810964 15.8434732,19.9288497 L24.064754,28.1755993 C25.1842456,29.298559 27.0407928,29.2569379 28.1376598,28.1566735 C29.2675715,27.0232609 29.3007353,25.2189036 28.1565272,24.0711503 L19.9352461,15.824401 C18.8157544,14.7014411 16.9592073,14.7430618 15.8623404,15.8433267 L15.8623404,15.8433267 Z" id="sun-path" stroke-width="1.4" fill="#FFFFFF"></path>
            </g>
        </g>
    </g>
</svg>