<?xml version="1.0" encoding="UTF-8"?>
<svg width="40px" height="43px" viewBox="0 0 40 43" version="1.1" xmlns="http://www.w3.org/2000/svg" xmlns:xlink="http://www.w3.org/1999/xlink">
    <!-- Generator: sketchtool 59 (101010) - https://sketch.com -->
    <title>F9E45862-509F-4EBD-979F-BE837966D2C5</title>
    <desc>Created with sketchtool.</desc>
    <defs>
        <linearGradient x1="50%" y1="25.6472649%" x2="50%" y2="88.8189853%" id="linearGradient-1">
            <stop stop-color="#E0E0E0" offset="0%"></stop>
            <stop stop-color="#A6A6A6" offset="100%"></stop>
        </linearGradient>
    </defs>
    <g id="Page-1" stroke="none" stroke-width="1" fill="none" fill-rule="evenodd">
        <g id="Desktop-Snowy-example" transform="translate(-638.000000, -487.000000)">
            <rect fill="#0F0F0F" x="0" y="0" width="1024" height="768"></rect>
            <rect id="Rectangle" fill="url(#linearGradient-1)" x="0" y="0" width="1024" height="768"></rect>
            <g id="snow-moon" transform="translate(639.000000, 489.000000)" fill-rule="nonzero">
                <g id="9106328351548329948" transform="translate(7.000000, 31.000000)" fill="#1F1F1F">
                    <path d="M4.4,1.35922079 C4.4,0.967528903 4.06949462,0.65 3.6875,0.65 C3.29399708,0.65 2.975,0.956152415 2.975,1.35922079 L2.975,2.97841381 L1.5727377,2.1688173 C1.23352263,1.97297143 0.793281808,2.10043297 0.602284498,2.43125 C0.405533053,2.77203348 0.511170212,3.20136931 0.860237699,3.40290349 L2.2625,4.2125 L0.860237699,5.02209651 C0.521022634,5.21794238 0.411287188,5.66293297 0.602284498,5.99375 C0.799035944,6.33453348 1.22367021,6.45771689 1.5727377,6.2561827 L2.975,5.4465862 L2.975,7.06577921 C2.975,7.4574711 3.30550538,7.775 3.6875,7.775 C4.08100292,7.775 4.4,7.46884759 4.4,7.06577921 L4.4,5.4465862 L5.80226227,6.2561827 C6.1414774,6.45202858 6.58171818,6.32456703 6.77271549,5.99375 C6.96946695,5.65296652 6.86382985,5.2236307 6.51476227,5.02209651 L5.1125,4.2125 L6.51476227,3.40290349 C6.8539774,3.20705762 6.9637128,2.76206703 6.77271549,2.43125 C6.57596403,2.09046652 6.15132985,1.96728311 5.80226227,2.1688173 L4.4,2.97841381 L4.4,1.35922079 Z M21.5,2.97841381 L21.5,1.35922079 C21.5,0.967528903 21.1694946,0.65 20.7875,0.65 C20.3939971,0.65 20.075,0.956152415 20.075,1.35922079 L20.075,2.97841381 L20.075,2.97841381 L18.6727377,2.1688173 C18.3335226,1.97297143 17.8932818,2.10043297 17.7022845,2.43125 C17.5055331,2.77203348 17.6111702,3.20136931 17.9602377,3.40290349 L19.3625,4.2125 L17.9602377,5.02209651 C17.6210226,5.21794238 17.5112872,5.66293297 17.7022845,5.99375 C17.899036,6.33453348 18.3236702,6.45771689 18.6727377,6.2561827 L20.075,5.4465862 L20.075,7.06577921 C20.075,7.4574711 20.4055054,7.775 20.7875,7.775 C21.1810029,7.775 21.5,7.46884759 21.5,7.06577921 L21.5,5.4465862 L22.9022623,6.2561827 C23.2414774,6.45202858 23.6817182,6.32456703 23.8727155,5.99375 C24.0694669,5.65296652 23.9638298,5.2236307 23.6147623,5.02209651 L22.2125,4.2125 L23.6147623,3.40290349 C23.9539774,3.20705762 24.0637128,2.76206703 23.8727155,2.43125 C23.675964,2.09046652 23.2513298,1.96728311 22.9022623,2.1688173 L21.5,2.97841381 L21.5,2.97841381 L21.5,2.97841381 Z M12.95,4.4034138 L12.95,2.78422079 C12.95,2.3925289 12.6194946,2.075 12.2375,2.075 C11.8439971,2.075 11.525,2.38115241 11.525,2.78422079 L11.525,4.4034138 L11.525,4.4034138 L10.1227377,3.5938173 C9.78352261,3.39797142 9.34328182,3.52543297 9.15228451,3.85625 C8.95553305,4.19703348 9.06117016,4.6263693 9.41023773,4.82790349 L10.8125,5.6375 L9.41023773,6.44709651 C9.07102261,6.64294238 8.9612872,7.08793297 9.15228451,7.41875 C9.34903597,7.75953348 9.77367016,7.88271689 10.1227377,7.6811827 L11.525,6.87158619 L11.525,8.49077921 C11.525,8.8824711 11.8555054,9.2 12.2375,9.2 C12.6310029,9.2 12.95,8.89384758 12.95,8.49077921 L12.95,6.87158619 L14.3522623,7.6811827 C14.6914774,7.87702857 15.1317182,7.74956703 15.3227155,7.41875 C15.5194669,7.07796652 15.4138298,6.64863069 15.0647623,6.44709651 L13.6625,5.6375 L15.0647623,4.82790349 C15.4039774,4.63205762 15.5137128,4.18706703 15.3227155,3.85625 C15.125964,3.51546652 14.7013298,3.39228311 14.3522623,3.5938173 L12.95,4.4034138 L12.95,4.4034138 L12.95,4.4034138 Z" id="cloud-snowflakes"></path>
                </g>
                <path d="M5.74141287,17.3430162 C3.25445387,17.9164303 1.4,20.1464536 1.4,22.8 C1.4,25.8927946 3.91711369,28.4 7.00394306,28.4 L30.7960569,28.4 C33.8910292,28.4 36.4,25.8865013 36.4,22.8 C36.4,20.1715804 34.582016,17.9661023 32.1413716,17.3630644 L32.1413716,17.3630644 C32.1800279,17.0808998 32.2,16.7927823 32.2,16.5 C32.2,13.0206059 29.3793941,10.2 25.9,10.2 C24.1842425,10.2 22.6286805,10.8858782 21.4925385,11.9984102 C20.1052167,9.26956829 17.270939,7.4 14,7.4 C9.36080788,7.4 5.6,11.1608078 5.6,15.8 C5.6,16.3270866 5.64854676,16.8428344 5.74141287,17.3430162 L5.74141287,17.3430162 L5.74141287,17.3430162 Z M33.5990892,16.3803413 C36.074704,17.4594103 37.8,19.927674 37.8,22.8 C37.8,26.6581267 34.6663443,29.8 30.8007841,29.8 L6.99921589,29.8 C3.12549185,29.8 0,26.6659932 0,22.8 C0,19.9287835 1.73552226,17.4542519 4.21665525,16.3761543 L4.21665525,16.3761543 C4.2056029,16.1855138 4.2,15.9934113 4.2,15.8 C4.2,10.3876092 8.58760918,6 14,6 C17.2171257,6 20.0721843,7.55019277 21.8589538,9.94435629 C23.0336007,9.21873581 24.4178998,8.8 25.9,8.8 C30.1126347,8.8 33.5351442,12.1829268 33.5990892,16.3803413 L33.5990892,16.3803413 L33.5990892,16.3803413 Z" id="cloud-snow" stroke="#1F1F1F" stroke-width="0.7" fill="#1F1F1F"></path>
                <g id="486888381548329951" transform="translate(24.000000, 0.000000)" stroke="#1F1F1F" stroke-width="2.1">
                    <path d="M4.46728159,0 C4.46195277,0.121143537 4.45926042,0.24297172 4.45926042,0.365428955 C4.45926042,4.88052848 8.11947146,8.54073963 12.6345712,8.54073963 C12.7570283,8.54073963 12.8788566,8.53804713 13,8.53271831 C12.3198738,10.4648491 10.777587,11.9906527 8.83497422,12.6482945 C8.16133285,12.8763455 6.31536636,10.7856551 4.95231141,10.1636097 C3.0762898,9.3074663 0.846406777,9.78110098 0.427397039,8.66890355 C0.151140243,7.93562202 0,7.14101609 0,6.31110945 C0,3.39572781 1.86514424,0.915974294 4.46728159,0 Z" id="moon"></path>
                </g>
            </g>
        </g>
    </g>
</svg>